<svg xmlns="http://www.w3.org/2000/svg" xmlns:xlink="http://www.w3.org/1999/xlink" viewBox="0 0 32 32"><defs><style>.cls-1{fill:url(#linear-gradient);}</style><linearGradient id="linear-gradient" y1="16" x2="32" y2="16" gradientUnits="userSpaceOnUse"><stop offset="0" stop-color="#7c3aed"/><stop offset="0.48" stop-color="#8b5cf6"/><stop offset="1" stop-color="#6366f1"/></linearGradient></defs><title>Asset 7</title><g id="Layer_2" data-name="Layer 2"><g id="Layer_1-2" data-name="Layer 1"><path class="cls-1" d="M13.79,12.77h0Zm.62-9.55h0A3.23,3.23,0,0,0,11.19,0h-8A3.23,3.23,0,0,0,0,3.22H0A3.23,3.23,0,0,0,3.22,6.44h8A3.23,3.23,0,0,0,14.41,3.22Zm16.91,9.55H23c-1.18,0-2.14-1.26-2.14-3.06s1-3.27,2.14-3.27h8.23c.38,0,.68-.47.68-1.05V1.05c0-.58-.3-1-.68-1H16.66C16.28,0,16,.47,16,1.05V18.59a1.13,1.13,0,0,0,.07.51H24.2c.81,0,1.48,1.11,1.48,2.47v1.6c0,1.36-.67,2.47-1.48,2.47H7c-.81,0-1.48-1.11-1.48-2.47v-1.6a2.7,2.7,0,0,1,1-2.35h7.39c.27,0,.5-.38.5-.85V13.63c0-.47-.23-.85-.5-.85H.66C.29,12.86,0,13.39,0,14V30.74C0,31.44.34,32,.76,32H31.31c.38,0,.69-.49.69-1.07V13.81C32,13.24,31.69,12.77,31.32,12.77ZM.5,12.78c-.27,0-.5.38-.5.85V14c0-.64.29-1.17.66-1.25Z"/></g></g></svg>