<svg xmlns="http://www.w3.org/2000/svg" xmlns:xlink="http://www.w3.org/1999/xlink" viewBox="0 0 180 180"><defs><style>.cls-1{fill:url(#linear-gradient);}</style><linearGradient id="linear-gradient" y1="90" x2="180" y2="90" gradientUnits="userSpaceOnUse"><stop offset="0" stop-color="#7c3aed"/><stop offset="0.48" stop-color="#8b5cf6"/><stop offset="1" stop-color="#6366f1"/></linearGradient></defs><title>Asset 8</title><g id="Layer_2" data-name="Layer 2"><g id="Layer_1-2" data-name="Layer 1"><path class="cls-1" d="M77.58,71.84v.07H3.69a2.1,2.1,0,0,1,.56-.07ZM81.05,33V3.22A3.22,3.22,0,0,0,77.84,0H3.22A3.23,3.23,0,0,0,0,3.22V33A3.23,3.23,0,0,0,3.22,36.2H77.84A3.22,3.22,0,0,0,81.05,33Zm95.1,38.84H129.6c-6.65,0-12-7.06-12-17.22s5.39-18.39,12-18.39h46.29c2.13,0,3.85-2.64,3.85-5.88V5.88C179.74,2.63,178,0,175.89,0H93.71c-2.13,0-3.85,2.63-3.85,5.88v98.69a6.46,6.46,0,0,0,.36,2.88h45.91c4.57,0,8.31,6.25,8.31,13.9v9c0,7.64-3.74,13.9-8.31,13.9H39.21c-4.57,0-8.31-6.26-8.31-13.9v-9c0-6.18,2.44-11.45,5.78-13.24H78.22c1.56,0,2.83-2.15,2.83-4.75V76.64c0-2.6-1.27-4.73-2.83-4.73H3.69c-2.08.45-3.69,3.42-3.69,7v94c0,3.93,1.9,7.1,4.25,7.1H176.14c2.13,0,3.86-2.76,3.86-6V77.71C180,74.47,178.28,71.82,176.15,71.82ZM2.84,71.91C1.27,71.91,0,74,0,76.64v2.3c0-3.61,1.61-6.58,3.69-7Z"/></g></g></svg>