<svg xmlns="http://www.w3.org/2000/svg" xmlns:xlink="http://www.w3.org/1999/xlink" viewBox="0 0 16 16"><defs><style>.cls-1{fill:url(#linear-gradient);}</style><linearGradient id="linear-gradient" y1="8" x2="16" y2="8" gradientUnits="userSpaceOnUse"><stop offset="0" stop-color="#7c3aed"/><stop offset="0.48" stop-color="#8b5cf6"/><stop offset="1" stop-color="#6366f1"/></linearGradient></defs><title>Asset 6</title><g id="Layer_2" data-name="Layer 2"><g id="Layer_1-2" data-name="Layer 1"><path class="cls-1" d="M6.9,6.39Zm.3-4.78h0A1.61,1.61,0,0,0,5.6,0h-4A1.61,1.61,0,0,0,0,1.61H0A1.62,1.62,0,0,0,1.61,3.22h4A1.61,1.61,0,0,0,7.2,1.61Zm8.46,4.77H11.52c-.59,0-1.07-.62-1.07-1.53s.48-1.63,1.07-1.63h4.12c.18,0,.34-.24.34-.52V.52c0-.29-.16-.52-.34-.52H8.33C8.14,0,8,.23,8,.52V9.3a.5.5,0,0,0,0,.25H12.1c.41,0,.74.56.74,1.24v.79c0,.68-.33,1.24-.74,1.24H3.49c-.41,0-.74-.56-.74-1.24v-.79a1.34,1.34,0,0,1,.51-1.18H7c.14,0,.25-.19.25-.42V6.81c0-.23-.11-.42-.25-.42H.33C.14,6.43,0,6.7,0,7v8.35c0,.35.17.63.38.63H15.66c.19,0,.34-.25.34-.54V6.91C16,6.62,15.85,6.38,15.66,6.38ZM.25,6.39c-.14,0-.25.19-.25.42V7c0-.32.14-.59.33-.63Z"/></g></g></svg>