<svg xmlns="http://www.w3.org/2000/svg" xmlns:xlink="http://www.w3.org/1999/xlink" viewBox="0 0 25.9 11.77"><defs><style>.cls-1{fill:url(#linear-gradient);}</style><linearGradient id="linear-gradient" y1="5.89" x2="25.9" y2="5.89" gradientUnits="userSpaceOnUse"><stop offset="0" stop-color="#7c3aed"/><stop offset="0.48" stop-color="#8b5cf6"/><stop offset="1" stop-color="#6366f1"/></linearGradient></defs><title>Asset 10</title><g id="Layer_2" data-name="Layer 2"><g id="Layer_1-2" data-name="Layer 1"><path class="cls-1" d="M11.16,4.7Zm.5-3.23V.9a.89.89,0,0,0-.89-.9H.9A.9.9,0,0,0,0,.9v.57a.9.9,0,0,0,.9.9h9.87A.89.89,0,0,0,11.66,1.47ZM25.35,4.7h-6.7c-1,0-1.73-.46-1.73-1.13s.77-1.2,1.73-1.2h6.66c.31,0,.55-.17.55-.39V.38c0-.21-.24-.38-.55-.38H13.48c-.3,0-.55.17-.55.38V6.84c0,.1,0,.16.05.19h6.61a1.08,1.08,0,0,1,1.19.91v.59c0,.5-.53.9-1.19.9H5.64c-.66,0-1.19-.4-1.19-.9V7.94a1,1,0,0,1,.83-.87h6a.37.37,0,0,0,.4-.31V5a.37.37,0,0,0-.4-.31H.53A.53.53,0,0,0,0,5.16v6.15c0,.26.27.46.61.46H25.35c.3,0,.55-.18.55-.39V5.08C25.9,4.87,25.65,4.7,25.35,4.7ZM.41,4.7C.18,4.7,0,4.84,0,5v.15A.53.53,0,0,1,.53,4.7Z"/></g></g></svg>