<svg xmlns="http://www.w3.org/2000/svg" xmlns:xlink="http://www.w3.org/1999/xlink" viewBox="0 0 135 20"><defs><style>.cls-1{fill:url(#linear-gradient);}.cls-2{fill:#17b5e5;}</style><linearGradient id="linear-gradient" y1="10" x2="43.99" y2="10" gradientUnits="userSpaceOnUse"><stop offset="0" stop-color="#7c3aed"/><stop offset="0.48" stop-color="#8b5cf6"/><stop offset="1" stop-color="#6366f1"/></linearGradient></defs><title>Asset 5</title><g id="Layer_2" data-name="Layer 2"><g id="Layer_1-2" data-name="Layer 1"><path class="cls-1" d="M19,8h0Zm.85-6h0a2,2,0,0,0-2-2H2A2,2,0,0,0,0,2H0A2,2,0,0,0,2,4H17.8A2,2,0,0,0,19.81,2ZM43.05,8H31.67c-1.62,0-2.94-.78-2.94-1.91S30.05,4,31.67,4H43c.52,0,.94-.29.94-.65V.65C43.93.29,43.51,0,43,0H22.9c-.52,0-.94.29-.94.65v11c0,.17,0,.26.09.32H33.27a1.84,1.84,0,0,1,2,1.54v1a1.84,1.84,0,0,1-2,1.55H9.58a1.85,1.85,0,0,1-2-1.55v-1A1.67,1.67,0,0,1,9,12H19.12a.63.63,0,0,0,.69-.53v-3A.63.63,0,0,0,19.12,8H.9a.9.9,0,0,0-.9.78V19.21A.94.94,0,0,0,1,20h42c.52,0,.94-.31.94-.67V8.63C44,8.27,43.57,8,43.05,8ZM.69,8A.63.63,0,0,0,0,8.52v.25A.9.9,0,0,1,.9,8Z"/><path class="cls-2" d="M63.87,20H54.28q-3.95,0-4-2.26V10.91c0-1.33,1.32-2,4-2h9.59v2.38H55.16v2h7.23v2.36H55.16v2h8.71Z"/><path class="cls-2" d="M66.57,17.59H75c1,0,1.43-.25,1.43-.75s-.32-.8-1-.9l-5.3-.56a10.63,10.63,0,0,1-2.1-.47,5.29,5.29,0,0,1-2-1.17,2.23,2.23,0,0,1-.73-1.54A2.09,2.09,0,0,1,66,10.71a5.22,5.22,0,0,1,1.86-1.17A11,11,0,0,1,70.68,9c.4,0,.8-.07,1.21-.09H80.1v2.41h-8q-1.44,0-1.44.72c0,.49.31.79,1,.9l6.8.83c2.09.43,3.18,1.28,3.25,2.57a2,2,0,0,1-.45,1.74,4.22,4.22,0,0,1-1.94,1.32,10.05,10.05,0,0,1-2.53.55,11.57,11.57,0,0,1-1.24.06H66.57Z"/><path class="cls-2" d="M97.6,20H88c-2.64,0-4-.75-4-2.26V10.91c0-1.33,1.31-2,4-2H97.6v2.38H88.9v2h7.23v2.36H88.9v2h8.7Z"/><path class="cls-2" d="M109.84,17.62l-3.46-2.25c-.4-.32-.6-.59-.6-.83v-.2a1.38,1.38,0,0,1,.6-.78l3.46-2.26h-5.31V20H99.84V8.91h10.82q4.26,0,4.26,2.05c0,.39-.4.9-1.21,1.54l-2.84,2,2.84,2c.81.64,1.21,1.15,1.21,1.53,0,1.36-1.42,2-4.26,2h-4.43V17.62Z"/><path class="cls-2" d="M125.5,13.59,120.9,20h-4.79l7.38-10.46a1.79,1.79,0,0,1,.81-.5,3.71,3.71,0,0,1,1.19-.19A4,4,0,0,1,126.7,9a1.72,1.72,0,0,1,.82.5L135,20h-4.8Z"/></g></g></svg>